<?xml version="1.0" encoding="UTF-8"?>
<svg width="434px" height="79px" viewBox="0 0 434 79" version="1.1" xmlns="http://www.w3.org/2000/svg" xmlns:xlink="http://www.w3.org/1999/xlink">
    <!-- Generator: Sketch 47.1 (45422) - http://www.bohemiancoding.com/sketch -->
    <title>logo</title>
    <desc>Created with Sketch.</desc>
    <defs></defs>
    <g id="Page-1" stroke="none" stroke-width="1" fill="none" fill-rule="evenodd">
        <g id="logo" fill-rule="nonzero">
            <g id="Group-4">
                <g id="Group-2">
                    <path d="M17.6579376,-1.76092852e-15 L79,-1.04752671e-15 L79,42.9547644 C79,52.5690429 77.5709617,58.2310831 74.8875262,63.2486709 C72.204091,68.2662587 68.2662587,72.204091 63.2486709,74.8875262 C58.2310831,77.5709617 52.5690429,79 42.9547644,79 L17.6579376,79 C11.517888,79 9.29135764,78.3606935 7.04664727,77.1602091 C4.80193693,75.9597247 3.04027511,74.1980632 1.83979088,71.9533527 C0.639306645,69.7086423 -4.22013143e-16,67.4821119 -1.17395235e-15,61.3420626 L-2.22749933e-16,17.6579376 C-9.7468914e-16,11.517888 0.639306645,9.29135764 1.83979088,7.04664727 C3.04027511,4.80193693 4.80193693,3.04027511 7.04664727,1.83979088 C9.29135764,0.639306645 11.517888,-6.33019713e-16 17.6579376,-1.76092852e-15 Z" id="Rectangle" fill="#D42027"></path>
                    <g id="Group-3" transform="translate(17.241780, 16.729412)">
                        <g id="Group" transform="translate(0.000000, 2.788235)" fill="#9E171C">
                            <rect id="Rectangle-30" x="0" y="0" width="38.9275362" height="10.7006689" rx="5.35033445"></rect>
                            <rect id="Rectangle-30" x="0" y="35.6688963" width="38.9275362" height="10.7006689" rx="5.35033445"></rect>
                            <rect id="Rectangle-30" x="0" y="17.8344481" width="19.6391174" height="10.7006689" rx="5.35033445"></rect>
                        </g>
                        <g id="Group" transform="translate(2.788235, 0.000000)" fill="#FFFFFF">
                            <rect id="Rectangle-30" x="0" y="0" width="38.9275362" height="10.7006689" rx="5.35033445"></rect>
                            <rect id="Rectangle-30" x="0" y="35.6688963" width="38.9275362" height="10.7006689" rx="5.35033445"></rect>
                            <rect id="Rectangle-30" x="0" y="17.8344481" width="19.6391174" height="10.7006689" rx="5.35033445"></rect>
                        </g>
                    </g>
                </g>
            </g>
            <g id="Group-5" transform="translate(97.230769, 12.558974)" fill="#000000">
                <path d="M4.70758974,42.9172564 L28.1229872,42.9172564 L28.1229872,46.9948718 L0.259282051,46.9948718 L0.259282051,3.25317949 L27.3816026,3.25317949 L27.3816026,7.33079487 L4.70758974,7.33079487 L4.70758974,22.2202692 L25.8988333,22.2202692 L25.8988333,26.2978846 L4.70758974,26.2978846 L4.70758974,42.9172564 Z M50.7352179,24.9386795 C50.1173942,23.7442205 49.2936417,22.7969052 48.2639359,22.0967051 C47.23423,21.396505 45.9780073,21.0464103 44.4952308,21.0464103 C43.7950307,21.0464103 43.0845444,21.1287855 42.36375,21.2935385 C41.6429556,21.4582914 40.9942506,21.7157141 40.4176154,22.0658141 C39.84098,22.4159141 39.3776193,22.8586811 39.0275192,23.3941282 C38.6774192,23.9295753 38.5023718,24.5885773 38.5023718,25.3711538 C38.5023718,26.7303658 38.9760295,27.7188687 39.923359,28.3366923 C40.8706885,28.9545159 42.2916615,29.489955 44.1863205,29.9430256 L48.3257179,30.9315385 C50.3439419,31.3846091 52.0223374,32.3010337 53.3609551,33.6808397 C54.6995729,35.0606458 55.3688718,36.780229 55.3688718,38.839641 C55.3688718,40.4047942 55.0496676,41.7536889 54.41125,42.8863654 C53.7728324,44.0190419 52.928486,44.9457633 51.8781859,45.6665577 C50.8278858,46.3873521 49.6231479,46.9124942 48.2639359,47.242 C46.9047239,47.5715058 45.5249386,47.7362564 44.1245385,47.7362564 C41.9003737,47.7362564 39.8306955,47.3140832 37.9154423,46.4697244 C36.0001892,45.6253655 34.3629812,44.1735019 33.0037692,42.1140897 L36.5253462,39.7045897 C37.349111,41.0226136 38.3890984,42.0728979 39.6453397,42.8554744 C40.9015811,43.6380508 42.3946325,44.0293333 44.1245385,44.0293333 C44.9483031,44.0293333 45.7720555,43.9366611 46.5958205,43.7513141 C47.4195851,43.5659671 48.1506657,43.2776536 48.7890833,42.8863654 C49.427501,42.4950772 49.9423464,41.9905289 50.3336346,41.3727051 C50.7249228,40.7548814 50.9205641,40.0340981 50.9205641,39.2103333 C50.9205641,37.7687449 50.3851252,36.7287575 49.3142308,36.0903397 C48.2433363,35.451922 46.9459262,34.9473737 45.4219615,34.5766795 L41.4679103,33.6499487 C40.9736514,33.526384 40.3043525,33.3204459 39.4599936,33.0321282 C38.6156347,32.7438105 37.7918822,32.3113405 36.9887115,31.7347051 C36.1855409,31.1580698 35.4956482,30.4063956 34.9190128,29.4796603 C34.3423774,28.5529249 34.0540641,27.4099683 34.0540641,26.0507564 C34.0540641,24.5679798 34.3526744,23.2705697 34.9499038,22.1584872 C35.5471333,21.0464047 36.350292,20.140277 37.3594038,19.4400769 C38.3685157,18.7398768 39.5114723,18.2147347 40.7883077,17.8646346 C42.065143,17.5145346 43.383147,17.3394872 44.742359,17.3394872 C46.7605829,17.3394872 48.6346197,17.7307696 50.3645256,18.5133462 C52.0944316,19.2959227 53.4330295,20.6345205 54.380359,22.5291795 L50.7352179,24.9386795 Z M65.8100385,31.1168846 L79.4638718,18.0808718 L85.5802949,18.0808718 L71.1850769,31.3022308 L87.1248462,46.9948718 L80.8230769,46.9948718 L65.8100385,31.7964872 L65.8100385,46.9948718 L61.7324231,46.9948718 L61.7324231,0.287641026 L65.8100385,0.287641026 L65.8100385,31.1168846 Z M97.4424487,6.96010256 C97.4424487,7.82505562 97.1335417,8.53554208 96.5157179,9.09158333 C95.8978942,9.64762459 95.2182985,9.92564103 94.4769103,9.92564103 C93.735522,9.92564103 93.0559263,9.64762459 92.4381026,9.09158333 C91.8202788,8.53554208 91.5113718,7.82505562 91.5113718,6.96010256 C91.5113718,6.09514951 91.8202788,5.38466305 92.4381026,4.82862179 C93.0559263,4.27258054 93.735522,3.9945641 94.4769103,3.9945641 C95.2182985,3.9945641 95.8978942,4.27258054 96.5157179,4.82862179 C97.1335417,5.38466305 97.4424487,6.09514951 97.4424487,6.96010256 Z M96.5157179,46.9948718 L92.4381026,46.9948718 L92.4381026,18.0808718 L96.5157179,18.0808718 L96.5157179,46.9948718 Z M121.661013,24.9386795 C121.043189,23.7442205 120.219437,22.7969052 119.189731,22.0967051 C118.160025,21.396505 116.903802,21.0464103 115.421026,21.0464103 C114.720826,21.0464103 114.010339,21.1287855 113.289545,21.2935385 C112.56875,21.4582914 111.920045,21.7157141 111.34341,22.0658141 C110.766775,22.4159141 110.303414,22.8586811 109.953314,23.3941282 C109.603214,23.9295753 109.428167,24.5885773 109.428167,25.3711538 C109.428167,26.7303658 109.901824,27.7188687 110.849154,28.3366923 C111.796483,28.9545159 113.217456,29.489955 115.112115,29.9430256 L119.251513,30.9315385 C121.269737,31.3846091 122.948132,32.3010337 124.28675,33.6808397 C125.625368,35.0606458 126.294667,36.780229 126.294667,38.839641 C126.294667,40.4047942 125.975463,41.7536889 125.337045,42.8863654 C124.698627,44.0190419 123.854281,44.9457633 122.803981,45.6665577 C121.753681,46.3873521 120.548943,46.9124942 119.189731,47.242 C117.830519,47.5715058 116.450734,47.7362564 115.050333,47.7362564 C112.826169,47.7362564 110.75649,47.3140832 108.841237,46.4697244 C106.925984,45.6253655 105.288776,44.1735019 103.929564,42.1140897 L107.451141,39.7045897 C108.274906,41.0226136 109.314893,42.0728979 110.571135,42.8554744 C111.827376,43.6380508 113.320427,44.0293333 115.050333,44.0293333 C115.874098,44.0293333 116.69785,43.9366611 117.521615,43.7513141 C118.34538,43.5659671 119.076461,43.2776536 119.714878,42.8863654 C120.353296,42.4950772 120.868141,41.9905289 121.259429,41.3727051 C121.650718,40.7548814 121.846359,40.0340981 121.846359,39.2103333 C121.846359,37.7687449 121.31092,36.7287575 120.240026,36.0903397 C119.169131,35.451922 117.871721,34.9473737 116.347756,34.5766795 L112.393705,33.6499487 C111.899446,33.526384 111.230147,33.3204459 110.385788,33.0321282 C109.54143,32.7438105 108.717677,32.3113405 107.914506,31.7347051 C107.111336,31.1580698 106.421443,30.4063956 105.844808,29.4796603 C105.268173,28.5529249 104.979859,27.4099683 104.979859,26.0507564 C104.979859,24.5679798 105.278469,23.2705697 105.875699,22.1584872 C106.472928,21.0464047 107.276087,20.140277 108.285199,19.4400769 C109.294311,18.7398768 110.437267,18.2147347 111.714103,17.8646346 C112.990938,17.5145346 114.308942,17.3394872 115.668154,17.3394872 C117.686378,17.3394872 119.560415,17.7307696 121.290321,18.5133462 C123.020226,19.2959227 124.358824,20.6345205 125.306154,22.5291795 L121.661013,24.9386795 Z M155.146885,30.3137179 C155.146885,27.5541059 154.323132,25.3196774 152.675603,23.6103654 C151.028073,21.9010534 148.721566,21.0464103 145.756013,21.0464103 C144.437989,21.0464103 143.161173,21.3038329 141.925526,21.8186859 C140.689879,22.3335389 139.608703,23.0234316 138.681968,23.8883846 C137.755233,24.7533377 137.013855,25.7418406 136.457814,26.8539231 C135.901773,27.9660056 135.623756,29.119259 135.623756,30.3137179 L155.146885,30.3137179 Z M135.500192,33.6499487 C135.623757,35.0915371 135.973852,36.4507287 136.550487,37.7275641 C137.127122,39.0043995 137.889094,40.1061685 138.836423,41.0329038 C139.783753,41.9596391 140.875225,42.6907197 142.110872,43.2261667 C143.346519,43.7616137 144.685117,44.0293333 146.126705,44.0293333 C148.309682,44.0293333 150.194016,43.524785 151.779763,42.5156731 C153.36551,41.5065611 154.570248,40.3430109 155.394013,39.0249872 L158.544897,41.6198333 C156.814991,43.8028099 154.910064,45.3679397 152.830058,46.3152692 C150.750052,47.2625987 148.515623,47.7362564 146.126705,47.7362564 C143.984917,47.7362564 141.997614,47.355271 140.164737,46.5932885 C138.331861,45.8313059 136.756434,44.7707248 135.43841,43.4115128 C134.120386,42.0523008 133.080399,40.4459836 132.318417,38.5925128 C131.556434,36.739042 131.175449,34.7208485 131.175449,32.5378718 C131.175449,30.3548951 131.546137,28.3367016 132.287526,26.4832308 C133.028914,24.62976 134.058604,23.0234427 135.376628,21.6642308 C136.694652,20.3050188 138.239188,19.2444376 140.010282,18.4824551 C141.781377,17.7204727 143.696601,17.3394872 145.756013,17.3394872 C147.938989,17.3394872 149.895402,17.7307696 151.625308,18.5133462 C153.355214,19.2959227 154.807078,20.3359102 155.980942,21.6333397 C157.154807,22.9307693 158.050638,24.4547113 158.668462,26.2052115 C159.286285,27.9557117 159.595192,29.8194517 159.595192,31.7964872 L159.595192,33.6499487 L135.500192,33.6499487 Z M167.009038,0.287641026 L171.086654,0.287641026 L171.086654,22.7145256 L171.210218,22.7145256 C171.663289,21.9319491 172.239915,21.2111657 172.940115,20.5521538 C173.640315,19.893142 174.42288,19.3268122 175.287833,18.8531474 C176.152787,18.3794827 177.069211,18.0087941 178.037135,17.7410705 C179.005058,17.473347 179.96267,17.3394872 180.91,17.3394872 C184.616942,17.3394872 187.355918,18.3176932 189.127013,20.2741346 C190.898107,22.230576 191.783641,25.0210374 191.783641,28.6456026 L191.783641,46.9948718 L187.706026,46.9948718 L187.706026,30.9933205 C187.706026,27.7806378 187.149993,25.3196774 186.03791,23.6103654 C184.925828,21.9010534 182.866447,21.0464103 179.859705,21.0464103 C179.653764,21.0464103 179.077137,21.1287855 178.129808,21.2935385 C177.182478,21.4582914 176.183678,21.9113553 175.133378,22.6527436 C174.083078,23.3941319 173.146059,24.5061977 172.322295,25.9889744 C171.49853,27.471751 171.086654,29.5311321 171.086654,32.1671795 L171.086654,46.9948718 L167.009038,46.9948718 L167.009038,0.287641026 Z M207.290936,6.96010256 C207.290936,7.82505562 206.982029,8.53554208 206.364205,9.09158333 C205.746381,9.64762459 205.066786,9.92564103 204.325397,9.92564103 C203.584009,9.92564103 202.904413,9.64762459 202.28659,9.09158333 C201.668766,8.53554208 201.359859,7.82505562 201.359859,6.96010256 C201.359859,6.09514951 201.668766,5.38466305 202.28659,4.82862179 C202.904413,4.27258054 203.584009,3.9945641 204.325397,3.9945641 C205.066786,3.9945641 205.746381,4.27258054 206.364205,4.82862179 C206.982029,5.38466305 207.290936,6.09514951 207.290936,6.96010256 Z M206.364205,46.9948718 L202.28659,46.9948718 L202.28659,18.0808718 L206.364205,18.0808718 L206.364205,46.9948718 Z M216.620026,27.1010513 C216.620026,25.8242158 216.589135,24.5268057 216.527353,23.2087821 C216.46557,21.8907584 216.414086,20.181472 216.372897,18.0808718 L220.388731,18.0808718 L220.388731,23.4559103 L220.512295,23.4559103 C220.800612,22.6733337 221.212489,21.9216596 221.747936,21.2008654 C222.283383,20.4800712 222.932088,19.8313662 223.694071,19.2547308 C224.456053,18.6780954 225.341587,18.2147347 226.350699,17.8646346 C227.359811,17.5145346 228.502767,17.3394872 229.779603,17.3394872 C230.932873,17.3394872 231.94197,17.4630501 232.806923,17.7101795 L232.003756,21.7260128 C231.468309,21.5200716 230.685744,21.4171026 229.656038,21.4171026 C228.090885,21.4171026 226.752288,21.7157128 225.640205,22.3129423 C224.528123,22.9101718 223.601401,23.6721428 222.860013,24.5988782 C222.118625,25.5256136 221.572889,26.5244135 221.222788,27.5953077 C220.872688,28.666202 220.697641,29.6958925 220.697641,30.6844103 L220.697641,46.9948718 L216.620026,46.9948718 L216.620026,27.1010513 Z" id="Eskisehir"></path>
                <path d="M235.769231,45.2800256 C235.769231,44.4400214 236.063228,43.7260286 236.651231,43.1380256 C237.239234,42.5500227 237.953227,42.2560256 238.793231,42.2560256 C239.633235,42.2560256 240.347228,42.5500227 240.935231,43.1380256 C241.523234,43.7260286 241.817231,44.4400214 241.817231,45.2800256 C241.817231,46.1200298 241.523234,46.8340227 240.935231,47.4220256 C240.347228,48.0100286 239.633235,48.3040256 238.793231,48.3040256 C237.953227,48.3040256 237.239234,48.0100286 236.651231,47.4220256 C236.063228,46.8340227 235.769231,46.1200298 235.769231,45.2800256 Z M252.023231,27.0100256 C252.023231,26.4640229 252.002231,25.8025295 251.960231,25.0255256 C251.918231,24.2485218 251.886731,23.4610296 251.865731,22.6630256 C251.844731,21.8650217 251.813231,21.1195291 251.771231,20.4265256 C251.729231,19.7335222 251.708231,19.1980275 251.708231,18.8200256 L255.488231,18.8200256 C255.530231,19.9120311 255.561731,20.9620206 255.582731,21.9700256 C255.603731,22.9780307 255.65623,23.6290242 255.740231,23.9230256 L255.929231,23.9230256 C256.685235,22.3270177 257.945222,20.9515314 259.709231,19.7965256 C261.47324,18.6415199 263.531219,18.0640256 265.883231,18.0640256 C268.151242,18.0640256 269.999224,18.4210221 271.427231,19.1350256 C272.855238,19.8490292 273.978727,20.7835199 274.797731,21.9385256 C275.616735,23.0935314 276.183729,24.4270181 276.498731,25.9390256 C276.813732,27.4510332 276.971231,29.0050177 276.971231,30.6010256 L276.971231,47.9260256 L273.191231,47.9260256 L273.191231,30.7900256 C273.191231,29.6140198 273.086232,28.4695312 272.876231,27.3565256 C272.66623,26.2435201 272.298733,25.2460301 271.773731,24.3640256 C271.248728,23.4820212 270.513735,22.7785283 269.568731,22.2535256 C268.623726,21.728523 267.395238,21.4660256 265.883231,21.4660256 C264.497224,21.4660256 263.184737,21.7075232 261.945731,22.1905256 C260.706725,22.6735281 259.635735,23.4085207 258.732731,24.3955256 C257.829726,25.3825306 257.115733,26.6215182 256.590731,28.1125256 C256.065728,29.6035331 255.803231,31.3570156 255.803231,33.3730256 L255.803231,47.9260256 L252.023231,47.9260256 L252.023231,27.0100256 Z M312.755231,42.4450256 C311.285223,44.6710368 309.468742,46.2670208 307.305731,47.2330256 C305.14272,48.1990305 302.759244,48.6820256 300.155231,48.6820256 C297.92922,48.6820256 295.91324,48.3040294 294.107231,47.5480256 C292.301222,46.7920219 290.747237,45.7315325 289.445231,44.3665256 C288.143224,43.0015188 287.145734,41.384535 286.452731,39.5155256 C285.759727,37.6465163 285.413231,35.578037 285.413231,33.3100256 C285.413231,31.1260147 285.770227,29.1100349 286.484231,27.2620256 C287.198234,25.4140164 288.206224,23.8075325 289.508231,22.4425256 C290.810237,21.0775188 292.343222,20.0065295 294.107231,19.2295256 C295.87124,18.4525218 297.82422,18.0640256 299.966231,18.0640256 C302.192242,18.0640256 304.155722,18.4525218 305.856731,19.2295256 C307.557739,20.0065295 308.985725,21.0355192 310.140731,22.3165256 C311.295737,23.597532 312.167228,25.0570175 312.755231,26.6950256 C313.343234,28.3330338 313.637231,29.9920172 313.637231,31.6720256 L313.637231,34.3180256 L289.193231,34.3180256 C289.193231,35.1160296 289.350729,36.1345194 289.665731,37.3735256 C289.980732,38.6125318 290.558227,39.8200198 291.398231,40.9960256 C292.238235,42.1720315 293.361724,43.1800214 294.768731,44.0200256 C296.175738,44.8600298 297.99222,45.2800256 300.218231,45.2800256 C302.15024,45.2800256 304.019222,44.8180303 305.825231,43.8940256 C307.63124,42.970021 309.017226,41.7100336 309.983231,40.1140256 L312.755231,42.4450256 Z M309.857231,30.9160256 C309.857231,29.6140191 309.594733,28.3960313 309.069731,27.2620256 C308.544728,26.12802 307.830735,25.1305299 306.927731,24.2695256 C306.024726,23.4085213 304.953737,22.7260282 303.714731,22.2220256 C302.475725,21.7180231 301.163238,21.4660256 299.777231,21.4660256 C297.71922,21.4660256 296.007738,21.8860214 294.642731,22.7260256 C293.277724,23.5660298 292.196235,24.5320202 291.398231,25.6240256 C290.600227,26.7160311 290.033232,27.7765205 289.697231,28.8055256 C289.361229,29.8345308 289.193231,30.5380238 289.193231,30.9160256 L309.857231,30.9160256 Z M336.317231,22.2220256 L328.001231,22.2220256 L328.001231,41.1850256 C328.001231,42.4870322 328.358227,43.4950221 329.072231,44.2090256 C329.786234,44.9230292 330.773224,45.2800256 332.033231,45.2800256 C332.747234,45.2800256 333.471727,45.1855266 334.206731,44.9965256 C334.941734,44.8075247 335.645227,44.5660271 336.317231,44.2720256 L336.632231,47.6740256 C335.918227,47.9260269 335.099235,48.1570246 334.175231,48.3670256 C333.251226,48.5770267 332.432234,48.6820256 331.718231,48.6820256 C330.374224,48.6820256 329.219236,48.4825276 328.253231,48.0835256 C327.287226,47.6845236 326.510234,47.149029 325.922231,46.4770256 C325.334228,45.8050223 324.903732,45.0175302 324.630731,44.1145256 C324.357729,43.2115211 324.221231,42.2350309 324.221231,41.1850256 L324.221231,22.2220256 L317.921231,22.2220256 L317.921231,18.8200256 L324.221231,18.8200256 L324.221231,10.4410256 L328.001231,10.4410256 L328.001231,18.8200256 L336.317231,18.8200256 L336.317231,22.2220256 Z" id=".net"></path>
            </g>
        </g>
    </g>
</svg>